# xmcd
#
# Track frame offsets:
#	150
#	4288
#	14395
#	30149
#	45704
#	68922
#	82712
#	94885
#	107667
#	122919
#	133183
#	159214
#	168441
#	183874
#	200471
#	208924
#	223003
#	235646
#	253765
#	268774
#	285991
#	306474
#
# Disc length: 4247 seconds
#
# Revision: 0
# Processed by: cddbd v1.5.1PL2 Copyright (c) Steve Scherf et al.
# Submitted via: EasyCDDAExtractor 9.0.0.1
#
DISCID=2f109516
DTITLE=The Blue Sky Boys - In Concert 1964
DYEAR=1964
DGENRE=Bluegrass
TTITLE0=Are You From Dixie
TTITLE1=Quit That Ticklin' Me
TTITLE2=I'm Just Here To Get My Baby Out Of Jail
TTITLE3=Wooried Man Blues
TTITLE4=After The Ball
TTITLE5=Behind These Prison Wall Of Love
TTITLE6=The Last Letter
TTITLE7=The Fox
TTITLE8=The Sweetest Gift
TTITLE9=Only One Step More
TTITLE10=Uncle Josh Comedy Skit
TTITLE11=Don't Trade
TTITLE12=Kentucky
TTITLE13=If I Could Hear My Mother Pray Again
TTITLE14=Sweetest Mountain Rose
TTITLE15=It Was Midnight On The Stormy Deep
TTITLE16=Beautiful
TTITLE17=In The Hills Of Roane County
TTITLE18=I'm Saved
TTITLE19=Whispering Hope
TTITLE20=The Butcher's Boy
TTITLE21=Are You From Dixie
EXTD=
EXTT0=
EXTT1=
EXTT2=
EXTT3=
EXTT4=
EXTT5=
EXTT6=
EXTT7=
EXTT8=
EXTT9=
EXTT10=
EXTT11=
EXTT12=
EXTT13=
EXTT14=
EXTT15=
EXTT16=
EXTT17=
EXTT18=
EXTT19=
EXTT20=
EXTT21=
PLAYORDER=
